<svg width="968" height="757" viewBox="0 0 968 757" fill="none" xmlns="http://www.w3.org/2000/svg">
<path d="M389 544.5C389 651.919 301.919 739 194.5 739C87.0806 739 0 651.919 0 544.5C0 437.081 87.0806 350 194.5 350C301.919 350 389 437.081 389 544.5Z" fill="#5D97DA"/>
<line x1="624.414" y1="88.7585" x2="667.403" y2="21.2901" stroke="black" stroke-width="10"/>
<line x1="612.33" y1="33.9927" x2="679.798" y2="76.9812" stroke="black" stroke-width="10"/>
<line x1="946.672" y1="151.899" x2="965.82" y2="146.124" stroke="black" stroke-width="3"/>
<line x1="953.977" y1="139.692" x2="959.752" y2="158.84" stroke="black" stroke-width="3"/>
<path d="M516 236C516 277.421 482.421 311 441 311C399.579 311 366 277.421 366 236C366 194.579 399.579 161 441 161C482.421 161 516 194.579 516 236Z" fill="#5D97DA"/>
<line x1="201.111" y1="718.884" x2="239.234" y2="730.994" stroke="black" stroke-width="3"/>
<line x1="226.243" y1="706.078" x2="214.132" y2="744.2" stroke="black" stroke-width="3"/>
<line x1="915.547" y1="746.84" x2="934.695" y2="741.065" stroke="black" stroke-width="3"/>
<line x1="922.853" y1="734.633" x2="928.628" y2="753.781" stroke="black" stroke-width="3"/>
</svg>
