<svg id="레이어_1" data-name="레이어 1" xmlns="http://www.w3.org/2000/svg" viewBox="0 0 486.7 198.31"><defs><style>.cls-1{fill:#3872b9;}.cls-2{fill:#0d140a;}.cls-3{fill:#e4f0d3;}.cls-4{font-size:128px;fill:#3a72b9;font-family:ArialRoundedMTBold, Arial Rounded MT Bold;}</style></defs><g id="AwJTu4"><path class="cls-1" d="M145.6,213.81c-54,.77-99.22-45.07-99.1-99.33.12-53.74,45.36-99.67,100.67-99,52.75.68,98.6,45.24,97.82,100.77C244.26,169.15,199.83,214.7,145.6,213.81Zm-54.87-131-.24-.51c0,.07,0,.18,0,.22a1.47,1.47,0,0,0,.31.23c7.34,6,15.56,10.65,23.34,16,2.36,1.62,5,3.07,3.75,6.65-1.13,3.26-4,2.42-6.36,2.42-11.37,0-22.75,0-31.17,0,7.95,1.33,18.9,3.1,29.82,5,2.66.47,6,.31,6.58,4.1s-2.57,4.56-5.11,5.66c-3.2,1.38-6.45,2.64-9.68,4l-15,6.09c3.25,1.21,5-.05,6.83-.32,7.45-1.11,14.22-4.9,21.77-5.63,2.26-.22,4.27-.07,5.38,2.47,1,2.36-.26,3.87-1.63,5.29-7.49,7.78-15,15.5-22.58,23.24l-.12.12.13-.14c3.5-1.28,6.31-3.62,9.16-5.9q8.56-6.87,17.17-13.67c1.87-1.48,3.86-2.07,5.89-.43,1.79,1.44,1.92,3.24,1.06,5.37-1.37,3.38-2.49,6.85-3.72,10.29-2.07,5.81-4.14,11.63-6.37,17.91,2.24-.52,2.27-1.91,2.77-2.84,4-7.47,8-14.94,11.84-22.48,1.19-2.32,2.6-3.82,5.39-3.38s3.12,2.78,3.45,4.86c.35,2.29.23,4.64.4,7,.59,7.93,1.21,15.86,1.81,23.79,1.6-10.2,2.35-20.31,3-30.42.16-2.46.34-4.74,3.37-5.27,2.83-.5,4.2,1.21,5.36,3.43,3.63,6.91,7.34,13.77,11,20.65,1,1.86,1.94,3.73,2.9,5.59-2.34-9.76-5.73-18.9-9.08-28.06-.86-2.37-1.71-4.89,1-6.71,2.41-1.6,4.35-.31,6.29,1.2,7.2,5.62,14.46,11.19,21.7,16.77.4.34.79,1.09,1.35.47s0-1-.58-1.27c-6.55-6.85-13.07-13.72-19.67-20.5-1.6-1.64-2.18-3.43-1.31-5.43,1-2.19,3-2.43,5.09-2,1.13.22,2.26.5,3.39.77l26.8,6.53a4.66,4.66,0,0,0-2.7-2.26c-8.17-3.26-16.34-6.53-24.54-9.71-2.49-1-4.69-2.08-4.21-5.25s2.93-3.57,5.52-4c8.34-1.39,16.66-2.88,25-4.34-1.69-1.64-3.63-1.67-5.64-1.57-6.65.34-13.3.63-19.94.93-2.73.13-5.58.28-6.44-3.15-.78-3.07,1.63-4.29,3.68-5.77,7.89-5.73,16.52-10.41,23.91-16.86l1.58-.63c-.09-.13-.16-.36-.26-.38a1.3,1.3,0,0,0-1.48.8c-9.11,4.38-18.23,8.72-27.31,13.14-2.3,1.12-4.49,1.58-6.31-.6-1.66-2-.92-3.94.37-5.91,2.29-3.47,4.45-7,6.62-10.56,3-4.84,5.93-9.69,8.89-14.54l-1.16-.88a18.37,18.37,0,0,1-1.34,2.11C174.85,71.3,169.16,78,163.59,84.86c-1.69,2.06-3.39,3.9-6.26,2.46-2.52-1.27-2.45-3.44-2-6,1.28-7.86,2.27-15.77,3.33-23.67.12-.88.48-2.1-1.38-2.21-2.41,8.37-4.87,16.77-7.22,25.21-.63,2.25-1.41,4.06-4.12,4.21-3,.16-4-1.92-4.69-4.25-1.57-5.41-2.92-10.89-4.66-16.24-.79-2.46-.81-5.38-3-7.49-1.14,1.54-.75,2.88-.57,4.15,1,7.06,2,14.12,3.21,21.15.38,2.25,0,4.06-2,5.12-2.17,1.17-4.17.61-5.73-1.36-.72-.92-1.46-1.81-2.21-2.7L108,61.6c-.9,1.75.33,2.29.78,3q7.5,12,15.16,24c1.29,2,1.79,4.08.2,6s-3.84,1.57-5.93.56-3.85-2-5.84-2.82C105.08,89.33,98.53,84.67,90.73,82.83Zm67.88,74.9a3.68,3.68,0,0,0-3.34-3.47,3.19,3.19,0,0,0-3.72,3.06,3.28,3.28,0,0,0,3.36,4C156.87,161.34,158.16,159.94,158.61,157.73Zm-21.91-3.58c-2,.27-3.55,1.32-3.69,3.3a3.44,3.44,0,0,0,3.59,3.82,3.24,3.24,0,0,0,3.4-3.46C140.05,155.65,138.67,154.61,136.7,154.15Zm-34.51-38.37c-2.48.22-3.55,1.58-3.48,3.94.07,2.11.33,4.16,3.14,4,2.64-.16,3.5-2.45,3.71-4.4S104.18,116.12,102.19,115.78Zm81.52,24.52c2.14-.2,3.57-1.45,3.69-3.37a3.41,3.41,0,0,0-3.7-3.71,3.3,3.3,0,0,0-3.35,3.54C180.38,138.83,181.79,139.94,183.71,140.3Zm-76-7.16c-2,.35-3.55,1.4-3.58,3.42a3.45,3.45,0,0,0,3.74,3.68,3.35,3.35,0,0,0,3.32-3.6C111.11,134.58,109.69,133.47,107.69,133.14ZM187.18,106c2.24-1,3.72-2.49,3.76-4.8,0-2-1-3.39-3.28-3.39S184.08,99.09,184,101C184,103.08,185.47,104.67,187.18,106ZM116.82,85.45c-.61-2.1-1.6-3.58-3.7-3.58-2.44,0-3.65,1.53-3.31,3.83.27,1.82.59,4.18,3.23,4S115.82,87,116.82,85.45Zm32.58-14.8c-.57-2-1.72-3.45-3.77-3.35a3.37,3.37,0,0,0-3.39,3.54,3.43,3.43,0,0,0,3.9,3.5A3.82,3.82,0,0,0,149.4,70.65Zm-45.33,34.13a3.55,3.55,0,0,0,3.44-3.46c0-2.2-1.43-3.57-3.83-3.53s-3.13,1.57-3.1,3.57S101.81,104.66,104.07,104.78ZM175,150.45c0-2-.84-3.51-3.08-3.63a3.4,3.4,0,0,0-3.84,3.53,3.29,3.29,0,0,0,3.48,3.34C173.76,153.77,174.77,152.57,175,150.45Zm-51.23-.21c-.7-1.55-1.29-3.29-3.52-3.42s-3.48.83-3.6,3.05.72,3.82,3.31,3.83C122.14,153.7,123,152.21,123.72,150.24Zm69.09-31c-.13-2.13-1.26-3.4-3.39-3.36a3.35,3.35,0,0,0-3.5,3.38c0,2.17,1.43,3.56,3.82,3.52S192.82,121.29,192.81,119.21Zm-11-33.75c0-2.11-1-3.54-3.09-3.62a3.38,3.38,0,0,0-3.78,3.56c0,2,1.4,3.24,3.49,3.32S181.72,87.67,181.77,85.46Zm-53.88-14.6c-2.07.49-3.5,1.64-3.32,4,.17,2.2,1.56,3.2,3.68,3s3.44-1.62,3.15-3.59C131.16,72.66,130.4,70.73,127.89,70.86ZM167,74.65c-.16-2.49-1.59-3.74-3.8-3.74s-3.09,2-3.11,3.72c0,2,1.41,3.27,3.55,3.28S166.85,76.64,167,74.65Z" transform="translate(-46.5 -15.51)"/><path class="cls-2" d="M158.61,157.73c-.45,2.21-1.74,3.61-3.7,3.54a3.28,3.28,0,0,1-3.36-4,3.19,3.19,0,0,1,3.72-3.06A3.68,3.68,0,0,1,158.61,157.73Z" transform="translate(-46.5 -15.51)"/><path class="cls-2" d="M136.71,154.16c2,.45,3.34,1.49,3.29,3.65a3.24,3.24,0,0,1-3.4,3.46,3.44,3.44,0,0,1-3.59-3.82C133.15,155.47,134.72,154.42,136.71,154.16Z" transform="translate(-46.5 -15.51)"/><path class="cls-2" d="M102.19,115.78c2,.34,3.58,1.62,3.37,3.53s-1.07,4.24-3.71,4.4c-2.81.17-3.07-1.88-3.14-4C98.64,117.36,99.71,116,102.19,115.78Z" transform="translate(-46.5 -15.51)"/><path class="cls-2" d="M183.71,140.3c-1.92-.36-3.33-1.47-3.36-3.54a3.3,3.3,0,0,1,3.35-3.54,3.41,3.41,0,0,1,3.7,3.71C187.28,138.85,185.85,140.1,183.71,140.3Z" transform="translate(-46.5 -15.51)"/><path class="cls-2" d="M107.7,133.13c2,.34,3.41,1.45,3.47,3.51a3.35,3.35,0,0,1-3.32,3.6,3.45,3.45,0,0,1-3.74-3.68C104.14,134.54,105.73,133.49,107.7,133.13Z" transform="translate(-46.5 -15.51)"/><path class="cls-2" d="M187.18,106c-1.71-1.3-3.22-2.89-3.16-5,.06-1.88,1.45-3.18,3.64-3.19s3.31,1.37,3.28,3.39C190.9,103.48,189.42,104.93,187.18,106Z" transform="translate(-46.5 -15.51)"/><path class="cls-2" d="M116.82,85.45c-1,1.57-1.19,4.1-3.78,4.26s-3-2.19-3.23-4c-.34-2.3.87-3.83,3.31-3.83C115.22,81.87,116.21,83.35,116.82,85.45Z" transform="translate(-46.5 -15.51)"/><path class="cls-2" d="M149.4,70.65a3.82,3.82,0,0,1-3.26,3.69,3.43,3.43,0,0,1-3.9-3.5,3.37,3.37,0,0,1,3.39-3.54C147.68,67.2,148.83,68.66,149.4,70.65Z" transform="translate(-46.5 -15.51)"/><path class="cls-2" d="M104.07,104.78c-2.26-.12-3.46-1.3-3.49-3.42s.75-3.53,3.1-3.57,3.88,1.33,3.83,3.53A3.55,3.55,0,0,1,104.07,104.78Z" transform="translate(-46.5 -15.51)"/><path class="cls-2" d="M174.94,150.45c-.17,2.12-1.18,3.32-3.43,3.24a3.29,3.29,0,0,1-3.48-3.34,3.4,3.4,0,0,1,3.84-3.53C174.11,146.94,174.9,148.42,174.94,150.45Z" transform="translate(-46.5 -15.51)"/><path class="cls-2" d="M123.72,150.24c-.74,2-1.58,3.46-3.81,3.46-2.59,0-3.42-1.55-3.31-3.83s1.47-3.18,3.6-3.05S123,148.69,123.72,150.24Z" transform="translate(-46.5 -15.51)"/><path class="cls-2" d="M192.81,119.21c0,2.08-.74,3.51-3.07,3.54s-3.83-1.35-3.82-3.52a3.35,3.35,0,0,1,3.5-3.38C191.55,115.81,192.68,117.08,192.81,119.21Z" transform="translate(-46.5 -15.51)"/><path class="cls-2" d="M181.77,85.47c-.05,2.2-1.19,3.32-3.38,3.25s-3.5-1.3-3.49-3.32a3.38,3.38,0,0,1,3.78-3.56C180.82,81.92,181.8,83.35,181.77,85.47Z" transform="translate(-46.5 -15.51)"/><path class="cls-2" d="M127.89,70.86c2.51-.13,3.27,1.8,3.51,3.45.29,2-1,3.4-3.15,3.59s-3.51-.81-3.68-3C124.39,72.5,125.82,71.35,127.89,70.86Z" transform="translate(-46.5 -15.51)"/><path class="cls-2" d="M167,74.65c-.14,2-1.16,3.28-3.36,3.26s-3.57-1.33-3.55-3.28c0-1.71.87-3.71,3.11-3.72S166.83,72.16,167,74.65Z" transform="translate(-46.5 -15.51)"/><path class="cls-3" d="M191.93,154.57c.61.24,1.07.72.58,1.27s-.95-.13-1.35-.47C191.41,155.1,191.67,154.83,191.93,154.57Z" transform="translate(-46.5 -15.51)"/><path class="cls-3" d="M200.72,81.75a1.3,1.3,0,0,1,1.48-.8c.1,0,.17.25.26.38l-1.57.64S200.72,81.75,200.72,81.75Z" transform="translate(-46.5 -15.51)"/><path class="cls-3" d="M90.81,82.77a1.47,1.47,0,0,1-.31-.23s0-.15,0-.22l.24.51Z" transform="translate(-46.5 -15.51)"/><polygon class="cls-3" points="50.27 142.2 50.14 142.34 50.26 142.22 50.27 142.2"/></g><text class="cls-4" transform="translate(202.51 145.76)">KiWi</text></svg>